<?xml version="1.0" encoding="utf-8"?>
<!-- Generator: Adobe Illustrator 19.2.1, SVG Export Plug-In . SVG Version: 6.00 Build 0)  -->
<svg version="1.1" id="Layer_1" xmlns="http://www.w3.org/2000/svg" xmlns:xlink="http://www.w3.org/1999/xlink" x="0px" y="0px"
	 viewBox="0 0 170 150.002" style="enable-background:new 0 0 170 150.002;" xml:space="preserve">
<style type="text/css">
	.st0{display:none;fill:none;stroke:#FFFFFF;stroke-width:2;stroke-linecap:round;stroke-miterlimit:10;}
	.st1{fill:#D5D2E4;}
	.st2{fill:#43324E;}
	.st3{fill:#FFFFFF;}
	.st4{fill:#ECEDED;}
	.st5{fill:#E1E2E3;}
	.st6{fill:url(#SVGID_1_);}
	.st7{fill:url(#SVGID_2_);}
	.st8{fill:#414042;}
	.st9{fill:#96806A;}
	.st10{fill:#EDDFC7;}
	.st11{fill:#594A42;}
	.st12{fill:#E81C24;}
	.st13{fill:#00ADFF;}
	.st14{fill:#FFDFD7;}
	.st15{fill:#A63E45;}
	.st16{fill:#328BE7;}
	.st17{fill:#49CA8F;}
	.st18{fill:#58595B;}
	.st19{fill:#FF8BA5;}
	.st20{fill:#EFF0F0;}
	.st21{fill:#978278;}
	.st22{fill:#CED0D1;}
	.st23{fill:#FFC877;}
	.st24{fill:#6866A4;}
	.st25{fill:#A0DEFF;}
	.st26{fill:#FF4E00;}
	.st27{fill:#0068A8;}
	.st28{fill:#21405D;}
	.st29{fill:#991F63;}
	.st30{fill:#881F63;}
	.st31{fill:#BF956C;}
	.st32{fill:#AE865F;}
	.st33{fill:#E0312B;}
	.st34{fill:#E6E6E6;}
	.st35{fill:#B4B6B7;}
	.st36{fill:#BD2C25;}
	.st37{fill:#2F2E30;}
	.st38{fill:#231F20;}
	.st39{fill:#FFCDED;}
	.st40{fill:#FFBBED;}
	.st41{fill:#FFE98C;}
	.st42{fill:#695E98;}
	.st43{fill:#CCCECF;}
	.st44{fill:#C5625D;}
	.st45{fill:#FFACAE;}
	.st46{fill:#414141;}
	.st47{fill:#006ED9;}
	.st48{fill:#38A1F2;}
	.st49{fill:#47A9F3;}
	.st50{fill:#80BFCF;}
	.st51{fill:#8DCDDC;}
	.st52{fill:#2498F0;}
	.st53{fill:#2B398B;}
	.st54{fill:#BDB096;}
	.st55{fill:#A39983;}
	.st56{fill:#FF868A;}
	.st57{fill:#E97279;}
	.st58{fill:#E75C54;}
	.st59{fill:#726658;}
	.st60{fill:#D2DCD8;}
	.st61{fill:#FFC36B;}
	.st62{fill:#E1F3F4;}
	.st63{fill:#FFA54C;}
	.st64{fill:#ED7F3A;}
	.st65{fill:#E79FA3;}
	.st66{fill:#E5E6E7;}
	.st67{fill:#B5DCE9;}
	.st68{fill:#95D3EF;}
	.st69{fill:#808080;}
	.st70{fill:#FFB5B2;}
	.st71{fill:#B91E2D;}
	.st72{fill:#A2D34F;}
	.st73{fill:#79A630;}
	.st74{fill:#37783C;}
	.st75{fill:#349DFF;}
	.st76{fill:#228FFF;}
	.st77{fill:#56D481;}
	.st78{fill:#005BEE;}
	.st79{fill:#FFE859;}
</style>
<g>
	<path class="st75" d="M168,38v98.13c0,6.56-5.31,11.87-11.87,11.87h-13.95c5.97,0,10.82-4.85,10.82-10.82V52H61l-3-16H22.38L25,22
		h53l3,16H168z M72.5,39.5c0-0.83-0.67-1.5-1.5-1.5s-1.5,0.67-1.5,1.5S70.17,41,71,41S72.5,40.33,72.5,39.5z"/>
	<g>
		<polygon class="st76" points="25,22 22.38,36 43.38,36 46,22 		"/>
	</g>
	<path class="st77" d="M85,12h-5V7h5V12z M82,10h1V9h-1V10z"/>
	<path class="st77" d="M119,28h-5v-5h5V28z M116,26h1v-1h-1V26z"/>
	<path class="st78" d="M143,13h-5V8h5V13z M140,11h1v-1h-1V11z"/>
	<path class="st78" d="M96.5,29c-1.379,0-2.5-1.122-2.5-2.5s1.121-2.5,2.5-2.5s2.5,1.122,2.5,2.5S97.879,29,96.5,29z M96.5,26
		c-0.275,0-0.5,0.224-0.5,0.5s0.225,0.5,0.5,0.5s0.5-0.224,0.5-0.5S96.776,26,96.5,26z"/>
	<path class="st58" d="M130.5,9c-1.379,0-2.5-1.122-2.5-2.5s1.121-2.5,2.5-2.5s2.5,1.122,2.5,2.5S131.879,9,130.5,9z M130.5,6
		c-0.275,0-0.5,0.224-0.5,0.5s0.225,0.5,0.5,0.5s0.5-0.224,0.5-0.5S130.776,6,130.5,6z"/>
	<path class="st75" d="M153,52v85.18c0,5.97-4.85,10.82-10.82,10.82h-1.05H12.82C6.85,148,2,143.15,2,137.18V52l3-16h17.38H58l3,16
		H153z"/>
	<path class="st76" d="M17,137.18V52l3-16H5L2,52v85.18C2,143.15,6.85,148,12.82,148h15C21.85,148,17,143.15,17,137.18z"/>
	<g id="XMLID_7_">
		<g>
			<circle class="st75" cx="71" cy="39.5" r="1.5"/>
		</g>
		<g>
			<path class="st79" d="M71,42c-1.379,0-2.5-1.122-2.5-2.5S69.621,37,71,37s2.5,1.122,2.5,2.5S72.379,42,71,42z M71,39
				c-0.275,0-0.5,0.224-0.5,0.5S70.725,40,71,40s0.5-0.224,0.5-0.5S71.276,39,71,39z"/>
		</g>
	</g>
	<g>
		<path class="st78" d="M168,36H82.66l-2.694-14.369C79.788,20.686,78.963,20,78,20H25c-0.963,0-1.789,0.686-1.966,1.632L20.72,34H5
			c-0.963,0-1.788,0.686-1.966,1.631l-3,16c-0.012,0.062-0.01,0.123-0.016,0.185C0.013,51.878,0,51.937,0,52v85.18
			C0,144.249,5.751,150,12.82,150H141.13h15c7.648,0,13.87-6.222,13.87-13.87V38C170,36.896,169.105,36,168,36z M4,137.18V52.186
			L6.66,38h15.756c0.001,0,0.002,0,0.002,0H56.34l2.694,14.369c0.001,0.006,0.003,0.011,0.005,0.017
			c0.009,0.045,0.025,0.087,0.037,0.131c0.021,0.078,0.042,0.157,0.072,0.23c0.018,0.045,0.042,0.086,0.062,0.129
			c0.034,0.069,0.068,0.137,0.109,0.201c0.026,0.04,0.055,0.077,0.083,0.115c0.045,0.06,0.092,0.119,0.143,0.173
			c0.033,0.036,0.068,0.069,0.104,0.102c0.054,0.049,0.11,0.096,0.168,0.139c0.04,0.03,0.081,0.058,0.123,0.085
			c0.062,0.039,0.126,0.073,0.192,0.105c0.044,0.021,0.087,0.044,0.134,0.062c0.077,0.031,0.157,0.053,0.238,0.074
			c0.038,0.01,0.075,0.023,0.115,0.031c0.124,0.024,0.25,0.039,0.378,0.039c0.002,0,0.003,0,0.005,0H151v83.18
			c0,4.863-3.957,8.82-8.82,8.82h-1.05H12.82C7.956,146,4,142.043,4,137.18z M166,136.13c0,5.442-4.428,9.87-9.87,9.87h-4.67
			c2.188-2.301,3.54-5.402,3.54-8.82V52c0-1.104-0.896-2-2-2H62.66l-2.694-14.369C59.788,34.686,58.963,34,58,34H24.789l1.871-10
			h49.68l2.694,14.369c0.001,0.006,0.003,0.011,0.005,0.017c0.009,0.045,0.025,0.087,0.037,0.131
			c0.021,0.078,0.042,0.157,0.072,0.23c0.018,0.045,0.042,0.086,0.062,0.129c0.034,0.069,0.068,0.137,0.109,0.201
			c0.026,0.04,0.055,0.077,0.083,0.115c0.045,0.06,0.092,0.119,0.143,0.173c0.033,0.036,0.068,0.069,0.104,0.102
			c0.054,0.049,0.11,0.096,0.168,0.139c0.04,0.03,0.081,0.058,0.123,0.085c0.062,0.039,0.126,0.073,0.192,0.105
			c0.044,0.021,0.087,0.044,0.134,0.062c0.077,0.031,0.157,0.053,0.238,0.074c0.038,0.01,0.075,0.023,0.115,0.031
			c0.124,0.024,0.25,0.039,0.378,0.039c0.002,0,0.003,0,0.005,0H166V136.13z"/>
		<path class="st78" d="M35,91c1.104,0,2-0.896,2-2c0-3.309,2.691-6,6-6s6,2.691,6,6c0,1.104,0.896,2,2,2s2-0.896,2-2
			c0-5.514-4.486-10-10-10s-10,4.486-10,10C33,90.105,33.896,91,35,91z"/>
		<path class="st78" d="M60,91c1.104,0,2-0.896,2-2c0-3.309,2.691-6,6-6s6,2.691,6,6c0,1.104,0.896,2,2,2s2-0.896,2-2
			c0-5.514-4.486-10-10-10s-10,4.486-10,10C58,90.105,58.896,91,60,91z"/>
		<path class="st78" d="M84,97c-1.104,0-2,0.896-2,2c0,14.612-11.888,26.5-26.5,26.5S29,113.612,29,99c0-1.104-0.896-2-2-2
			s-2,0.896-2,2c0,16.817,13.683,30.5,30.5,30.5S86,115.817,86,99C86,97.896,85.105,97,84,97z"/>
	</g>
</g>
</svg>
